<svg width="84" height="100" viewBox="0 0 84 100" fill="none" xmlns="http://www.w3.org/2000/svg">
<g clip-path="url(#clip0_63_11)">
<path d="M41.6667 0.00375366L83.3333 24.9681V74.8968L41.6667 99.8611L0 74.8968V24.9681L41.6667 0.00375366Z" fill="#673AB8"/>
<path d="M11.3493 74.484C16.8883 81.8415 34.4922 76.2355 51.1117 62.7605C67.7311 49.2859 77.2314 32.9165 71.6924 25.5586C66.153 18.201 48.5495 23.8074 31.93 37.282C15.3105 50.7574 5.81022 67.1264 11.3493 74.484ZM13.7158 72.5652C11.8786 70.1255 12.6813 65.3353 16.181 59.3051C19.8665 52.9552 26.1227 45.9452 33.7786 39.7379C41.4349 33.5306 49.5023 28.9266 56.3311 26.7518C62.8161 24.6867 67.4889 25.0374 69.3258 27.4774C71.1631 29.9174 70.3603 34.7076 66.8607 40.7379C63.1751 47.0877 56.9189 54.0973 49.263 60.305C41.6068 66.5123 33.5391 71.1163 26.7106 73.2908C20.2256 75.3562 15.5527 75.0056 13.7158 72.5656V72.5652Z" fill="white"/>
<path d="M71.6924 74.484C77.2318 67.1264 67.7311 50.757 51.1117 37.282C34.4922 23.8074 16.888 18.201 11.3493 25.5586C5.80989 32.9162 15.3105 49.2859 31.93 62.7605C48.5495 76.2355 66.153 81.8419 71.6924 74.484ZM69.3259 72.5652C67.4889 75.0056 62.8161 75.3562 56.3311 73.2908C49.5023 71.1163 41.4349 66.5123 33.779 60.305C26.1227 54.0973 19.8662 47.0877 16.1813 40.7379C12.6813 34.7076 11.8786 29.9177 13.7155 27.4774C15.5527 25.0374 20.2256 24.6867 26.7103 26.7518C33.5391 28.9266 41.6068 33.5306 49.2627 39.7379C56.919 45.9452 63.1751 52.9552 66.8604 59.3051C70.3604 65.335 71.1631 70.1252 69.3259 72.5655V72.5652Z" fill="white"/>
<path d="M41.5208 56.6438C45.0453 56.6438 47.902 53.6788 47.902 50.0213C47.902 46.3641 45.0453 43.3991 41.5208 43.3991C37.9964 43.3991 35.1393 46.3641 35.1393 50.0213C35.1393 53.6788 37.9964 56.6438 41.5208 56.6438Z" fill="white"/>
</g>
<defs>
<clipPath id="clip0_63_11">
<rect width="83.3333" height="100" fill="white"/>
</clipPath>
</defs>
</svg>
